<svg xmlns="http://www.w3.org/2000/svg" viewBox="0 0 512 512" role="img" aria-label="Manhwa Lib icon">
  <rect width="512" height="512" rx="128" fill="#ff006e"/>
  <path d="M108 72h296c20 0 36 16 36 36v296c0 20-16 36-36 36H108c-20 0-36-16-36-36V108c0-20 16-36 36-36Z" fill="#111218"/>
  <path d="M128 126h256v260H128z" fill="#f6f7fb"/>
  <path d="M162 338V174h43l51 73 51-73h43v164h-43v-96l-39 56h-24l-39-56v96h-43Z" fill="#111218"/>
  <rect x="162" y="354" width="188" height="14" rx="7" fill="#ff006e"/>
</svg>
